<?xml version="1.0" encoding="UTF-8"?>
<svg id="Layer_2" data-name="Layer 2" xmlns="http://www.w3.org/2000/svg" viewBox="0 0 84.38 84.38">
  <defs>
    <style>
      .cls-1 {
        fill: #fff;
      }
    </style>
  </defs>
  <g id="Layer_1-2" data-name="Layer 1">
    <g>
      <path d="M84.38.17v84.21H.17V.17s84.21,0,84.21,0ZM15.75,52.72h4.72l.22-.28.86-5.71c4.57-.3,9.19.9,11.21-4.29,1.64-4.23,1.43-10.12-4.2-10.61-3.29-.29-7.01.21-10.35.02l-2.7,20.3c-.06.2.07.51.24.56ZM52.38,31.83h-5.14c-2.1,2.58-3.38,5.8-5.22,8.59-.42,0-2.27-7.04-2.69-7.91-.13-.27-.27-.49-.51-.67h-4.97l4.67,13.43c.23,2.39-.31,4.74-.56,7.11l.18.34h4.72c.29-.25.31-.75.37-1.14.34-2.08.29-4.26,1.2-6.21l7.95-13.53ZM51.37,52.72h4.63l1.25-6.49c.65-.11,1.79-.25,2.28.27l3.21,6.22h5.14l-3.54-6.9c2.64-.7,3.79-1.97,4.43-4.58,1.04-4.25.87-9.02-4.51-9.41-3.35-.24-6.99.2-10.37,0l-2.53,20.89Z"/>
      <polygon class="cls-1" points=".17 84.38 0 84.38 0 0 84.38 0 84.38 .17 .17 .17 .17 84.38"/>
      <path class="cls-1" d="M51.37,52.72l2.53-20.89c3.38.19,7.02-.25,10.37,0,5.38.39,5.55,5.16,4.51,9.41-.64,2.61-1.8,3.87-4.43,4.58l3.54,6.9h-5.14l-3.21-6.22c-.48-.52-1.62-.38-2.28-.27l-1.25,6.49h-4.63ZM57.6,42.27h4.29c.12,0,1.2-.53,1.35-.67.8-.74,1.09-3.71.62-4.67-.75-1.53-3.97-.69-5.41-.87l-.86,6.21Z"/>
      <path class="cls-1" d="M15.75,52.72c-.18-.05-.31-.37-.24-.56l2.7-20.3c3.33.19,7.05-.31,10.35-.02,5.63.49,5.85,6.39,4.2,10.61-2.02,5.19-6.64,3.99-11.21,4.29l-.86,5.71-.22.28h-4.72ZM22.15,42.44c.48.14,2.51,0,3.2,0,.13,0,1.19-.23,1.39-.3,1.55-.51,2.02-3.64,1.48-4.92-.82-1.91-3.8-.97-5.46-1.16l-.85,5.98c-.03.15.14.37.24.4Z"/>
      <path class="cls-1" d="M52.38,31.83l-7.95,13.53c-.91,1.96-.85,4.13-1.2,6.21-.06.39-.08.89-.37,1.14h-4.72l-.18-.34c.25-2.36.79-4.72.56-7.11l-4.67-13.43h4.97c.24.19.38.4.51.67.42.87,2.27,7.92,2.69,7.91,1.84-2.78,3.12-6.01,5.22-8.59h5.14Z"/>
      <path d="M57.6,42.27l.86-6.21c1.44.18,4.66-.65,5.41.87.47.96.18,3.93-.62,4.67-.15.14-1.23.67-1.35.67h-4.29Z"/>
      <path d="M22.15,42.44c-.11-.03-.27-.26-.24-.4l.85-5.98c1.66.19,4.64-.75,5.46,1.16.55,1.28.07,4.41-1.48,4.92-.2.07-1.25.3-1.39.3-.69,0-2.72.14-3.2,0Z"/>
    </g>
  </g>
</svg>