<?xml version="1.0" encoding="UTF-8"?>
<svg id="Layer_2" data-name="Layer 2" xmlns="http://www.w3.org/2000/svg" viewBox="0 0 252.28 61.05">
  <defs>
    <style>
      .cls-1 {
        fill: #fff;
      }
    </style>
  </defs>
  <g id="Layer_1-2" data-name="Layer 1">
    <g>
      <path class="cls-1" d="M207.76.1c10.32,0,20.42-.03,30.52.03,1.25,0,2.53.37,3.75.71,6.31,1.72,9.69,6.26,10.13,12.38.35,4.78-.11,9.79-1.23,14.46-1.92,7.97-5.16,10.84-13.18,13.31,3.53,6.6,7.03,13.16,10.72,20.05-5.23,0-10.1.05-14.96-.07-.54-.01-1.23-.97-1.55-1.63-2.52-5.11-5.04-10.22-7.41-15.41-.66-1.45-1.43-2.07-3.02-1.92-1.48.14-2.99.03-4.66.03-.91,6.37-1.79,12.57-2.69,18.89h-14.29c2.62-20.23,5.24-40.41,7.89-60.82ZM218.21,30.71c3.88,0,7.34.15,10.78-.04,3.39-.18,6.56-1.3,7.48-4.99.68-2.71.94-5.61.88-8.41-.06-2.75-2-4.75-4.7-4.92-3.96-.24-7.94-.06-12-.06-.81,6.14-1.61,12.15-2.44,18.42Z"/>
      <path class="cls-1" d="M94.48,61.04c1.68-3.7,3.27-7.15,4.82-10.61,7.16-16,14.36-31.98,21.43-48.03.85-1.93,1.9-2.46,3.89-2.4,4.52.15,9.05.11,13.57.02,1.38-.03,2.04.39,2.28,1.74,2.87,15.92,5.76,31.83,8.65,47.74.68,3.75,1.36,7.5,2.1,11.54-4.87,0-9.45.04-14.03-.07-.4,0-1.03-.92-1.14-1.49-.53-2.87-.93-5.76-1.41-8.84-6.44,0-12.77-.04-19.09.06-.58,0-1.37.79-1.69,1.4-1.27,2.46-2.33,5.03-3.59,7.5-.31.61-1.11,1.36-1.69,1.37-4.59.11-9.18.06-14.11.06ZM132.87,38.52c-1.11-8.01-2.19-15.76-3.35-24.07-3.42,8.34-6.63,16.15-9.88,24.07h13.23Z"/>
      <path class="cls-1" d="M7.84.08c10.24,0,20.1-.03,29.96.03,1.4,0,2.83.38,4.19.75,6.16,1.65,10.21,6.42,10.63,12.74.4,6.11-.17,12.13-2.47,17.9-2.73,6.85-7.81,10.75-15.1,11.42-4.86.45-9.77.35-14.65.49-.97.03-1.94,0-3.09,0-.82,5.85-1.63,11.55-2.46,17.44H0C2.61,40.65,5.21,20.48,7.84.08ZM21.01,12.23c-.82,6.22-1.62,12.33-2.45,18.63,4.07,0,7.75.12,11.41-.03,3.75-.16,6.33-2.21,7.11-5.78.51-2.32.68-4.76.63-7.14-.07-3.18-2.44-5.53-5.63-5.65-3.61-.14-7.22-.03-11.07-.03Z"/>
      <path class="cls-1" d="M175.76,60.92h-14.91c.56-4.46.97-8.78,1.67-13.06.66-4.06.59-7.81-.95-11.83-4.33-11.32-8.18-22.83-12.21-34.27-.17-.48-.27-.99-.47-1.7,4.81,0,9.47-.06,14.12.08.57.02,1.4.99,1.63,1.69,2.61,7.81,5.13,15.65,7.69,23.48.04.13.2.22.39.41,1.48-2.65,2.93-5.27,4.41-7.87,3.11-5.48,6.22-10.97,9.4-16.41.35-.6,1.16-1.3,1.77-1.32,4.81-.11,9.63-.06,14.89-.06-1.55,2.59-2.92,4.87-4.28,7.16-5.9,9.94-11.63,19.98-17.78,29.77-2.47,3.94-3.37,8.1-3.93,12.5-.48,3.78-.96,7.57-1.45,11.44Z"/>
      <path class="cls-1" d="M69.89,48.51h23.07c-.52,4.22-1.02,8.25-1.54,12.41h-37.77c.34-2.84.64-5.63,1-8.41,1.3-10.04,2.62-20.07,3.94-30.11.9-6.91,1.79-13.82,2.76-20.72.08-.58.74-1.54,1.15-1.55,4.5-.11,9.01-.07,13.81-.07-2.15,16.24-4.26,32.18-6.42,48.45Z"/>
    </g>
  </g>
</svg>